<?xml version="1.0" encoding="UTF-8" standalone="no"?><svg xmlns="http://www.w3.org/2000/svg" xmlns:xlink="http://www.w3.org/1999/xlink" contentScriptType="application/ecmascript" contentStyleType="text/css" height="284px" preserveAspectRatio="none" style="width:674px;height:284px;background:#FFFFFF;" version="1.1" viewBox="0 0 674 284" width="674px" zoomAndPan="magnify"><defs><filter height="300%" id="ff1z450wnbj4p" width="300%" x="-1" y="-1"><feGaussianBlur result="blurOut" stdDeviation="2.0"/><feColorMatrix in="blurOut" result="blurOut2" type="matrix" values="0 0 0 0 0 0 0 0 0 0 0 0 0 0 0 0 0 0 .4 0"/><feOffset dx="4.0" dy="4.0" in="blurOut2" result="blurOut3"/><feBlend in="SourceGraphic" in2="blurOut3" mode="normal"/></filter></defs><g><!--MD5=[3d4692d208133b1b78dcc5de01376daa]
cluster Official Host--><path d="M38.0205,47.8692 C43.5743,38.9683 50.5578,37.8061 56.7136,47.256 C63.2266,35.8323 72.4974,37.8403 78.5003,47.7762 C85.5999,36.9174 94.0406,39.2283 99.8874,49.0705 C103.8824,41.5432 111.7436,39.9949 116.9242,47.7486 C124.127,38.6082 131.3167,35.8417 138.9803,47.2542 C143.9327,37.1984 155.0928,33.4453 162.149,44.9986 C168.7443,34.421 178.5143,35.3197 182.735,47.1775 C186.9647,38.9065 193.7879,37.2063 200.3901,44.4834 C207.8283,35.7673 215.3419,36.882 220.3009,47.0916 C226.2502,38.292 236.6033,37.7134 241.2805,48.4574 C248.1103,37.1798 258.0337,37.5537 264.5356,48.796 C270.8107,40.5114 276.4233,39.1141 282.5055,48.9869 C287.8693,35.8907 299.2528,36.3387 306.5416,47.0429 C318.7057,36.8262 325.5441,41.396 330.3044,54.5659 C332.2804,55.2578 332.3835,56.6285 331.2326,58.1339 C350.994,67.2226 351.0877,78.1596 336.9784,92.8536 C352.4485,110.9361 349.4102,132.1983 323.3044,137.5659 C324.2598,137.52 324.4565,138.0875 324.1659,138.8668 C316.7435,147.8619 309.977,146.5333 303.427,137.8437 C298.9479,147.8176 289.6447,148.2804 283.1327,140.1186 C277.256,149.8933 267.7426,148.0467 263.4178,138.5324 C258.2386,148.9375 247.4097,150.924 241.5677,139.1864 C237.1169,147.1293 230.0216,150.4508 223.43,141.4825 C215.448,153.0018 206.8995,151.9237 199.7526,140.6163 C194.5192,149.9862 188.0332,148.371 182.013,141.4743 C176.3314,151.3512 167.872,151.9646 161.5438,142.1463 C154.436,151.7446 146.7964,152.1682 139.5479,142.3052 C133.8408,151.3205 124.6342,150.5491 119.5826,141.5776 C112.5348,150.5731 103.6112,149.8698 97.9545,139.9842 C92.6927,151.0281 83.8464,151.2375 76.9231,141.6804 C70.1211,149.0461 64.2371,148.7345 58.6085,140.3187 C44.5804,153.9399 31.4143,148.7798 27.3044,130.5659 C27.8529,130.4455 28.1718,130.727 28.1019,131.2888 C8.5163,121.7964 6.4454,106.8229 24.4249,93.6596 C6,73.7947 8.0279,57.8498 34.3044,47.5659 C35.441,45.7027 37.1828,46.0682 38.0205,47.8692 " fill="#FFFFFF" filter="url(#ff1z450wnbj4p)" style="stroke:#000000;stroke-width:1.5;"/><text fill="#000000" font-family="sans-serif" font-size="14" font-weight="bold" lengthAdjust="spacing" textLength="95" x="131.3044" y="65.561">Official Host</text><!--MD5=[bc0564934731d835f212c3d663305418]
cluster Local Network--><rect fill="#FFFFFF" filter="url(#ff1z450wnbj4p)" height="233" style="stroke:#000000;stroke-width:1.5;" width="172" x="490.3044" y="39.5659"/><path d="M613.3044,39.5659 L613.3044,48.8628 L603.3044,58.8628 L490.3044,58.8628 " fill="none" style="stroke:#000000;stroke-width:1.5;"/><text fill="#000000" font-family="sans-serif" font-size="14" font-weight="bold" lengthAdjust="spacing" textLength="113" x="493.3044" y="53.561">Local Network</text><!--MD5=[3f9efd09a644941ff8bea46f379d81b7]
entity nd--><rect fill="#FEFECE" height="36.2969" style="stroke:none;stroke-width:1.5;" width="67" x="49.8044" y="93.5659"/><path d="M34.8044,93.5659 L49.8044,93.5659 L49.8044,129.8628 L116.8044,129.8628 L116.8044,93.5659 L131.8044,93.5659 " fill="none" filter="url(#ff1z450wnbj4p)" style="stroke:#A80036;stroke-width:1.5;"/><text fill="#000000" font-family="sans-serif" font-size="14" lengthAdjust="spacing" textLength="47" x="59.8044" y="116.561">Note-d</text><!--MD5=[5ce1dd92f4be7d361447cd7d7f7c3ac7]
entity nds--><rect fill="#FEFECE" height="36.2969" style="stroke:none;stroke-width:1.5;" width="125" x="181.8044" y="93.5659"/><path d="M166.8044,93.5659 L181.8044,93.5659 L181.8044,129.8628 L306.8044,129.8628 L306.8044,93.5659 L321.8044,93.5659 " fill="none" filter="url(#ff1z450wnbj4p)" style="stroke:#A80036;stroke-width:1.5;"/><text fill="#000000" font-family="sans-serif" font-size="14" lengthAdjust="spacing" textLength="105" x="191.8044" y="116.561">Note-d Storage</text><!--MD5=[23555a4f9c8a267cdfd801ad53ceaf15]
entity browser--><ellipse cx="552.3044" cy="224.5659" fill="#FEFECE" filter="url(#ff1z450wnbj4p)" rx="12" ry="12" style="stroke:#A80036;stroke-width:1.5;"/><polygon fill="#A80036" points="548.3044,212.5659,554.3044,207.5659,552.3044,212.5659,554.3044,217.5659,548.3044,212.5659" style="stroke:#A80036;stroke-width:1.0;"/><text fill="#000000" font-family="sans-serif" font-size="14" lengthAdjust="spacing" textLength="93" x="505.8044" y="253.561">Your Browser</text><!--MD5=[edd51cc1526b830937f517cd68703115]
entity locnote--><rect fill="#FEFECE" height="36.2969" style="stroke:none;stroke-width:1.5;" width="109" x="521.8044" y="93.5659"/><path d="M506.8044,93.5659 L521.8044,93.5659 L521.8044,129.8628 L630.8044,129.8628 L630.8044,93.5659 L645.8044,93.5659 " fill="none" filter="url(#ff1z450wnbj4p)" style="stroke:#A80036;stroke-width:1.5;"/><text fill="#000000" font-family="sans-serif" font-size="14" lengthAdjust="spacing" textLength="89" x="531.8044" y="116.561">local-storage</text><!--MD5=[6cd1ea22259653ef46c91697f6edfede]
reverse link nd to browser--><path d="M110.4744,132.5659 C121.9544,140.1659 135.7744,148.2659 149.3044,153.5659 C272.5444,201.8659 429.1144,221.1459 505.7644,228.0759 " fill="none" id="nd-backto-browser" style="stroke:#A80036;stroke-width:1.0;"/><polygon fill="#A80036" points="106.0244,129.5659,111.2412,137.9197,110.1669,132.3657,115.7209,131.2915,106.0244,129.5659" style="stroke:#A80036;stroke-width:1.0;"/><text fill="#000000" font-family="sans-serif" font-size="13" lengthAdjust="spacing" textLength="52" x="224.3044" y="174.6328">Fetch UI</text><!--MD5=[de8db49a00e95086a385ac22fd96a259]
reverse link nds to browser--><path d="M293.2644,131.4859 C351.6244,154.0359 448.4444,191.4359 505.7344,213.5759 " fill="none" id="nds-backto-browser" style="stroke:#A80036;stroke-width:1.0;"/><polygon fill="#A80036" points="288.4344,129.6159,295.3871,136.5915,293.0981,131.4185,298.2712,129.1295,288.4344,129.6159" style="stroke:#A80036;stroke-width:1.0;"/><text fill="#000000" font-family="sans-serif" font-size="13" lengthAdjust="spacing" textLength="77" x="408.3044" y="174.6328">Fetch Notes</text><!--MD5=[92d0f73f1a96e923bf1cdfa6695b07b9]
reverse link locnote to browser--><path d="M571.8344,134.7159 C567.6044,155.7059 561.2744,187.1059 556.9744,208.4159 " fill="none" id="locnote-backto-browser" style="stroke:#A80036;stroke-width:1.0;"/><polygon fill="#A80036" points="572.8644,129.6159,567.168,137.6503,571.8783,134.5177,575.0109,139.228,572.8644,129.6159" style="stroke:#A80036;stroke-width:1.0;"/><text fill="#000000" font-family="sans-serif" font-size="13" lengthAdjust="spacing" textLength="77" x="566.3044" y="174.6328">Fetch Notes</text><!--MD5=[7a21469f2566f0f4cdae26c5774c8ab4]
link nd to locnote--><path d="M100.0444,80.3359 C111.3844,62.6159 128.1544,41.9459 149.3044,31.5659 C170.1344,21.3359 364.3644,22.0659 394.3044,28.5659 C444.7844,39.5359 498.0544,65.7759 533.8244,85.8459 " fill="none" id="nd-locnote" style="stroke:#A80036;stroke-width:1.0;stroke-dasharray:7.0,7.0;"/><ellipse cx="540.155" cy="89.4753" fill="#FFFFFF" rx="8" ry="8" style="stroke:#A80036;stroke-width:1.0;"/><line style="stroke:#A80036;stroke-width:1.0;" x1="533.2156" x2="547.0944" y1="85.4947" y2="93.4559"/><line style="stroke:#A80036;stroke-width:1.0;" x1="544.1356" x2="536.1744" y1="82.5359" y2="96.4147"/><ellipse cx="96.3678" cy="86.5066" fill="#FFFFFF" rx="8" ry="8" style="stroke:#A80036;stroke-width:1.0;"/><line style="stroke:#A80036;stroke-width:1.0;" x1="100.4512" x2="92.2844" y1="79.6272" y2="93.3859"/><line style="stroke:#A80036;stroke-width:1.0;" x1="103.2471" x2="89.4884" y1="90.59" y2="82.4231"/><text fill="#000000" font-family="sans-serif" font-size="13" lengthAdjust="spacing" textLength="148" x="245.3044" y="19.6328">Blocked by your firewall</text><!--MD5=[c11a7a5ba616f3ae1e13507568a283dc]
link nds to locnote--><path d="M337.2844,111.5659 C385.6244,111.5659 444.2844,111.5659 491.3944,111.5659 " fill="none" id="nds-locnote" style="stroke:#A80036;stroke-width:1.0;stroke-dasharray:7.0,7.0;"/><ellipse cx="498.5744" cy="111.5659" fill="#FFFFFF" rx="8" ry="8" style="stroke:#A80036;stroke-width:1.0;"/><line style="stroke:#A80036;stroke-width:1.0;" x1="490.5744" x2="506.5744" y1="111.5659" y2="111.5659"/><line style="stroke:#A80036;stroke-width:1.0;" x1="498.5744" x2="498.5744" y1="103.5659" y2="119.5659"/><ellipse cx="330.1444" cy="111.5659" fill="#FFFFFF" rx="8" ry="8" style="stroke:#A80036;stroke-width:1.0;"/><line style="stroke:#A80036;stroke-width:1.0;" x1="338.1444" x2="322.1444" y1="111.5659" y2="111.5659"/><line style="stroke:#A80036;stroke-width:1.0;" x1="330.1444" x2="330.1444" y1="119.5659" y2="103.5659"/><text fill="#000000" font-family="sans-serif" font-size="13" lengthAdjust="spacing" textLength="148" x="340.3044" y="104.6328">Blocked by your firewall</text><!--MD5=[18f31a326a8e1926beaa7ad6daff6eec]
@startuml
cloud "Official Host" {
	stack nd as "Note-d"
	stack nds as "Note-d Storage"
}

frame "Local Network" {
	control browser as "Your Browser"
	stack locnote as "local-storage"
}

browser -up-> nd: Fetch UI
browser -up-> nds: Fetch Notes
browser -up-> locnote: Fetch Notes
nd +.+ locnote: Blocked by your firewall
nds +.+ locnote: Blocked by your firewall
@enduml

PlantUML version 1.2022.0(Tue Jan 11 16:16:42 UTC 2022)
(GPL source distribution)
Java Runtime: OpenJDK Runtime Environment
JVM: OpenJDK 64-Bit Server VM
Default Encoding: UTF-8
Language: en
Country: null
--></g></svg>